<mxfile host="app.diagrams.net" agent="Mozilla/5.0 (Windows NT 10.0; Win64; x64) AppleWebKit/537.36 (KHTML, like Gecko) Chrome/130.0.0.0 Safari/537.36" version="24.7.17">
  <diagram id="C5RBs43oDa-KdzZeNtuy" name="Page-1">
    <mxGraphModel dx="1194" dy="760" grid="1" gridSize="10" guides="1" tooltips="1" connect="1" arrows="1" fold="1" page="1" pageScale="1" pageWidth="827" pageHeight="1169" math="0" shadow="0">
      <root>
        <mxCell id="WIyWlLk6GJQsqaUBKTNV-0" />
        <mxCell id="WIyWlLk6GJQsqaUBKTNV-1" parent="WIyWlLk6GJQsqaUBKTNV-0" />
        <mxCell id="yPYNsc6fqyosIAy7rtN6-3" value="" style="edgeStyle=orthogonalEdgeStyle;rounded=0;orthogonalLoop=1;jettySize=auto;html=1;" edge="1" parent="WIyWlLk6GJQsqaUBKTNV-1" source="yPYNsc6fqyosIAy7rtN6-0" target="yPYNsc6fqyosIAy7rtN6-2">
          <mxGeometry relative="1" as="geometry" />
        </mxCell>
        <mxCell id="yPYNsc6fqyosIAy7rtN6-0" value="Start" style="rounded=1;whiteSpace=wrap;html=1;arcSize=50;" vertex="1" parent="WIyWlLk6GJQsqaUBKTNV-1">
          <mxGeometry x="350" y="110" width="120" height="60" as="geometry" />
        </mxCell>
        <mxCell id="yPYNsc6fqyosIAy7rtN6-1" value="End" style="rounded=1;whiteSpace=wrap;html=1;arcSize=50;" vertex="1" parent="WIyWlLk6GJQsqaUBKTNV-1">
          <mxGeometry x="550" y="296" width="120" height="60" as="geometry" />
        </mxCell>
        <mxCell id="yPYNsc6fqyosIAy7rtN6-5" value="" style="edgeStyle=orthogonalEdgeStyle;rounded=0;orthogonalLoop=1;jettySize=auto;html=1;" edge="1" parent="WIyWlLk6GJQsqaUBKTNV-1" source="yPYNsc6fqyosIAy7rtN6-2" target="yPYNsc6fqyosIAy7rtN6-4">
          <mxGeometry relative="1" as="geometry" />
        </mxCell>
        <mxCell id="yPYNsc6fqyosIAy7rtN6-2" value="A[::-1]" style="shape=parallelogram;perimeter=parallelogramPerimeter;whiteSpace=wrap;html=1;fixedSize=1;rounded=1;arcSize=25;" vertex="1" parent="WIyWlLk6GJQsqaUBKTNV-1">
          <mxGeometry x="500" y="110" width="120" height="60" as="geometry" />
        </mxCell>
        <mxCell id="yPYNsc6fqyosIAy7rtN6-7" value="" style="edgeStyle=orthogonalEdgeStyle;rounded=0;orthogonalLoop=1;jettySize=auto;html=1;" edge="1" parent="WIyWlLk6GJQsqaUBKTNV-1" source="yPYNsc6fqyosIAy7rtN6-4" target="yPYNsc6fqyosIAy7rtN6-6">
          <mxGeometry relative="1" as="geometry" />
        </mxCell>
        <mxCell id="yPYNsc6fqyosIAy7rtN6-4" value="B" style="shape=parallelogram;perimeter=parallelogramPerimeter;whiteSpace=wrap;html=1;fixedSize=1;rounded=1;arcSize=25;" vertex="1" parent="WIyWlLk6GJQsqaUBKTNV-1">
          <mxGeometry x="500" y="200" width="120" height="60" as="geometry" />
        </mxCell>
        <mxCell id="yPYNsc6fqyosIAy7rtN6-16" value="" style="edgeStyle=orthogonalEdgeStyle;rounded=0;orthogonalLoop=1;jettySize=auto;html=1;" edge="1" parent="WIyWlLk6GJQsqaUBKTNV-1" source="yPYNsc6fqyosIAy7rtN6-6" target="yPYNsc6fqyosIAy7rtN6-15">
          <mxGeometry relative="1" as="geometry" />
        </mxCell>
        <mxCell id="yPYNsc6fqyosIAy7rtN6-6" value="counter = 0" style="shape=process;whiteSpace=wrap;html=1;backgroundOutline=1;rounded=1;arcSize=25;" vertex="1" parent="WIyWlLk6GJQsqaUBKTNV-1">
          <mxGeometry x="350" y="200" width="120" height="60" as="geometry" />
        </mxCell>
        <mxCell id="yPYNsc6fqyosIAy7rtN6-19" value="" style="edgeStyle=orthogonalEdgeStyle;rounded=0;orthogonalLoop=1;jettySize=auto;html=1;" edge="1" parent="WIyWlLk6GJQsqaUBKTNV-1" source="yPYNsc6fqyosIAy7rtN6-15" target="yPYNsc6fqyosIAy7rtN6-18">
          <mxGeometry relative="1" as="geometry" />
        </mxCell>
        <mxCell id="yPYNsc6fqyosIAy7rtN6-29" style="edgeStyle=orthogonalEdgeStyle;rounded=0;orthogonalLoop=1;jettySize=auto;html=1;entryX=0.5;entryY=0;entryDx=0;entryDy=0;" edge="1" parent="WIyWlLk6GJQsqaUBKTNV-1" source="yPYNsc6fqyosIAy7rtN6-15" target="yPYNsc6fqyosIAy7rtN6-28">
          <mxGeometry relative="1" as="geometry" />
        </mxCell>
        <mxCell id="yPYNsc6fqyosIAy7rtN6-15" value="&lt;div style=&quot;&quot;&gt;&lt;pre style=&quot;&quot;&gt;&lt;div style=&quot;&quot;&gt;&lt;pre style=&quot;&quot;&gt;i % B == 0&lt;/pre&gt;&lt;/div&gt;&lt;/pre&gt;&lt;/div&gt;" style="rhombus;whiteSpace=wrap;html=1;rounded=1;arcSize=6;" vertex="1" parent="WIyWlLk6GJQsqaUBKTNV-1">
          <mxGeometry x="335" y="286" width="150" height="80" as="geometry" />
        </mxCell>
        <mxCell id="yPYNsc6fqyosIAy7rtN6-24" style="edgeStyle=orthogonalEdgeStyle;rounded=0;orthogonalLoop=1;jettySize=auto;html=1;entryX=0.5;entryY=1;entryDx=0;entryDy=0;exitX=0.5;exitY=1;exitDx=0;exitDy=0;" edge="1" parent="WIyWlLk6GJQsqaUBKTNV-1" source="yPYNsc6fqyosIAy7rtN6-18" target="yPYNsc6fqyosIAy7rtN6-15">
          <mxGeometry relative="1" as="geometry">
            <Array as="points">
              <mxPoint x="250" y="386" />
              <mxPoint x="410" y="386" />
            </Array>
          </mxGeometry>
        </mxCell>
        <mxCell id="yPYNsc6fqyosIAy7rtN6-18" value="counter+=1" style="whiteSpace=wrap;html=1;rounded=1;arcSize=6;" vertex="1" parent="WIyWlLk6GJQsqaUBKTNV-1">
          <mxGeometry x="190" y="296" width="120" height="60" as="geometry" />
        </mxCell>
        <mxCell id="yPYNsc6fqyosIAy7rtN6-21" value="Yes" style="text;html=1;align=center;verticalAlign=middle;whiteSpace=wrap;rounded=0;" vertex="1" parent="WIyWlLk6GJQsqaUBKTNV-1">
          <mxGeometry x="310" y="276" width="60" height="30" as="geometry" />
        </mxCell>
        <mxCell id="yPYNsc6fqyosIAy7rtN6-23" style="edgeStyle=orthogonalEdgeStyle;rounded=0;orthogonalLoop=1;jettySize=auto;html=1;entryX=1;entryY=0.5;entryDx=0;entryDy=0;" edge="1" parent="WIyWlLk6GJQsqaUBKTNV-1" source="yPYNsc6fqyosIAy7rtN6-15" target="yPYNsc6fqyosIAy7rtN6-15">
          <mxGeometry relative="1" as="geometry">
            <Array as="points">
              <mxPoint x="505" y="286" />
              <mxPoint x="505" y="326" />
            </Array>
          </mxGeometry>
        </mxCell>
        <mxCell id="yPYNsc6fqyosIAy7rtN6-25" value="A" style="text;html=1;align=center;verticalAlign=middle;whiteSpace=wrap;rounded=0;" vertex="1" parent="WIyWlLk6GJQsqaUBKTNV-1">
          <mxGeometry x="300" y="356" width="60" height="30" as="geometry" />
        </mxCell>
        <mxCell id="yPYNsc6fqyosIAy7rtN6-27" value="A" style="text;html=1;align=center;verticalAlign=middle;whiteSpace=wrap;rounded=0;" vertex="1" parent="WIyWlLk6GJQsqaUBKTNV-1">
          <mxGeometry x="431" y="260" width="60" height="30" as="geometry" />
        </mxCell>
        <mxCell id="yPYNsc6fqyosIAy7rtN6-30" style="edgeStyle=orthogonalEdgeStyle;rounded=0;orthogonalLoop=1;jettySize=auto;html=1;entryX=0.5;entryY=1;entryDx=0;entryDy=0;" edge="1" parent="WIyWlLk6GJQsqaUBKTNV-1" source="yPYNsc6fqyosIAy7rtN6-28" target="yPYNsc6fqyosIAy7rtN6-1">
          <mxGeometry relative="1" as="geometry">
            <mxPoint x="630" y="400" as="targetPoint" />
            <Array as="points">
              <mxPoint x="560" y="430" />
              <mxPoint x="560" y="370" />
              <mxPoint x="610" y="370" />
            </Array>
          </mxGeometry>
        </mxCell>
        <mxCell id="yPYNsc6fqyosIAy7rtN6-28" value="counter" style="shape=parallelogram;perimeter=parallelogramPerimeter;whiteSpace=wrap;html=1;fixedSize=1;" vertex="1" parent="WIyWlLk6GJQsqaUBKTNV-1">
          <mxGeometry x="420" y="400" width="120" height="60" as="geometry" />
        </mxCell>
      </root>
    </mxGraphModel>
  </diagram>
</mxfile>
